<svg xmlns="http://www.w3.org/2000/svg" viewBox="0 0 2390 1000" width="2390" height="1000"
     role="img" aria-label="PERSONAL BELONGINGS — Canyon and Collar proxy plate">
  <title>05 PERSONAL BELONGINGS — Canyon &amp; Collar proxy plate</title>
  <defs>
    <linearGradient id="sky05" x1="0" y1="0" x2="0" y2="1">
      <stop offset="0%" stop-color="#C4A986"/>
      <stop offset="55%" stop-color="#E0CDB0"/>
      <stop offset="100%" stop-color="#EFE2CC"/>
    </linearGradient>
    <linearGradient id="ground05" x1="0" y1="0" x2="0" y2="1">
      <stop offset="0%" stop-color="#75604A"/>
      <stop offset="100%" stop-color="#463A2D"/>
    </linearGradient>
    <radialGradient id="sun05" cx="0.5" cy="0.5" r="0.5">
      <stop offset="0%" stop-color="#FFE6BC" stop-opacity="0.95"/>
      <stop offset="45%" stop-color="#FFE6BC" stop-opacity="0.35"/>
      <stop offset="100%" stop-color="#FFE6BC" stop-opacity="0"/>
    </radialGradient>
    <linearGradient id="haze05" x1="0" y1="1" x2="0" y2="0">
      <stop offset="0%" stop-color="#F1E2C9" stop-opacity="0.55"/>
      <stop offset="100%" stop-color="#F1E2C9" stop-opacity="0"/>
    </linearGradient>
    <radialGradient id="vig05" cx="0.5" cy="0.5" r="0.75">
      <stop offset="55%" stop-color="#000000" stop-opacity="0"/>
      <stop offset="100%" stop-color="#000000" stop-opacity="0.42"/>
    </radialGradient>
    <filter id="grain05" x="0" y="0" width="100%" height="100%">
      <feTurbulence type="fractalNoise" baseFrequency="0.85" numOctaves="3" stitchTiles="stitch"/>
      <feColorMatrix type="saturate" values="0"/>
    </filter>
    <filter id="soft05" x="-20%" y="-20%" width="140%" height="140%">
      <feGaussianBlur stdDeviation="12.0"/>
    </filter>
    <filter id="soft205" x="-30%" y="-30%" width="160%" height="160%">
      <feGaussianBlur stdDeviation="45.0"/>
    </filter>
  </defs>
  <rect width="2390" height="1000" fill="#463A2D"/>
  <circle cx="765" cy="300" r="780" fill="url(#sun05)" opacity="0.50"/>
  <circle cx="581" cy="288" r="88" fill="#FFE6BC" opacity="0.04" filter="url(#soft205)"/>
  <circle cx="375" cy="662" r="121" fill="#FFE6BC" opacity="0.13" filter="url(#soft205)"/>
  <circle cx="1359" cy="138" r="46" fill="#FFE6BC" opacity="0.07" filter="url(#soft205)"/>
  <circle cx="1771" cy="574" r="41" fill="#FFE6BC" opacity="0.07" filter="url(#soft205)"/>
  <circle cx="356" cy="506" r="99" fill="#FFE6BC" opacity="0.05" filter="url(#soft205)"/>
  <circle cx="2024" cy="532" r="88" fill="#FFE6BC" opacity="0.10" filter="url(#soft205)"/>
  <circle cx="328" cy="44" r="94" fill="#FFE6BC" opacity="0.08" filter="url(#soft205)"/>
  <circle cx="1912" cy="724" r="81" fill="#FFE6BC" opacity="0.13" filter="url(#soft205)"/>
  <circle cx="384" cy="706" r="88" fill="#FFE6BC" opacity="0.04" filter="url(#soft205)"/>
  <circle cx="1097" cy="465" r="90" fill="#FFE6BC" opacity="0.06" filter="url(#soft205)"/>
  <circle cx="1256" cy="553" r="126" fill="#FFE6BC" opacity="0.05" filter="url(#soft205)"/>
  <circle cx="1875" cy="194" r="147" fill="#FFE6BC" opacity="0.12" filter="url(#soft205)"/>
  <circle cx="1331" cy="182" r="50" fill="#FFE6BC" opacity="0.12" filter="url(#soft205)"/>
  <circle cx="441" cy="294" r="126" fill="#FFE6BC" opacity="0.08" filter="url(#soft205)"/>
  <circle cx="1218" cy="726" r="112" fill="#FFE6BC" opacity="0.07" filter="url(#soft205)"/>
  <circle cx="244" cy="203" r="77" fill="#FFE6BC" opacity="0.10" filter="url(#soft205)"/>
  <circle cx="2240" cy="538" r="123" fill="#FFE6BC" opacity="0.06" filter="url(#soft205)"/>
  <circle cx="0" cy="365" r="109" fill="#FFE6BC" opacity="0.13" filter="url(#soft205)"/>
  <path d="M -20 800 C 813 720 1434 500 2410 380 L 2410 600 C 1434 720 813 940 -20 1020 Z" fill="#6B4A32"/>
  <path d="M -20 800 C 813 720 1434 500 2410 380" stroke="#FFE6BC" stroke-width="10.0" fill="none" opacity="0.55"/>
  <path d="M -20 1020 C 813 940 1434 720 2410 600" stroke="#1A1816" stroke-width="14.0" fill="none" opacity="0.45"/>
  <path d="M -20 800 C 813 720 1434 500 2410 380" transform="translate(0,35)" stroke="#D8C3A5" stroke-width="4.0" stroke-dasharray="22 18" fill="none" opacity="0.3"/>
  <path d="M -20 800 C 813 720 1434 500 2410 380" transform="translate(0,175)" stroke="#D8C3A5" stroke-width="4.0" stroke-dasharray="22 18" fill="none" opacity="0.22"/>
  <ellipse cx="801" cy="685" rx="55" ry="50" fill="none" stroke="#B08B4F" stroke-width="22.0"/>
  <ellipse cx="801" cy="673" rx="50" ry="30" fill="none" stroke="#F0D9A6" stroke-width="6.0" opacity="0.6"/>
  <g transform="rotate(-7 1141 710)"><rect x="956" y="560" width="370" height="300" rx="48" fill="#A8813F"/><rect x="956" y="560" width="370" height="126" rx="48" fill="#E3C075" opacity="0.55"/><rect x="978" y="581" width="326" height="258" rx="33" fill="none" stroke="#F3E0B4" stroke-width="3.0" opacity="0.45"/><rect x="1008" y="668" width="267" height="22" rx="6" fill="#4A3418" opacity="0.75"/><rect x="1008" y="690" width="267" height="5" fill="#FFF0C8" opacity="0.55"/><rect x="1037" y="728" width="207" height="14" rx="4" fill="#4A3418" opacity="0.65"/><rect x="1037" y="742" width="207" height="4" fill="#FFF0C8" opacity="0.4"/></g>
  <ellipse cx="1030" cy="605" rx="120" ry="70" fill="#FFE6BC" opacity="0.28" filter="url(#soft205)"/>
  <rect width="2390" height="1000" fill="#1A1816" opacity="0.22"/>
  <rect width="2390" height="1000" fill="url(#vig05)"/>
  <rect width="2390" height="1000" filter="url(#grain05)" opacity="0.11"/>
  <rect x="1338" y="70" width="956" height="400" fill="none" stroke="#F3EBDF" stroke-opacity="0.30" stroke-width="2" stroke-dasharray="14 12"/>
  <text x="1356" y="104" font-family="Helvetica,Arial,sans-serif" font-size="20" letter-spacing="3" fill="#F3EBDF" fill-opacity="0.55">RESERVED — UPPER RIGHT</text>
  <text x="48" y="922" font-family="Helvetica,Arial,sans-serif" font-size="30" letter-spacing="7" fill="#F3EBDF" fill-opacity="0.82">05 · PERSONAL BELONGINGS</text>
  <text x="48" y="958" font-family="Helvetica,Arial,sans-serif" font-size="20" letter-spacing="4" fill="#F3EBDF" fill-opacity="0.55">85mm · 2.39:1 · 4-6s · interior, filtered daylight</text>
  <text x="2342" y="958" text-anchor="end" font-family="Helvetica,Arial,sans-serif" font-size="20" letter-spacing="5" fill="#F3EBDF" fill-opacity="0.45">PROXY PLATE — NOT FINAL ASSET</text>
  </svg>
